<mxfile host="app.diagrams.net" modified="2024-02-07T01:33:59.441Z" agent="Mozilla/5.0 (Windows NT 10.0; Win64; x64) AppleWebKit/537.36 (KHTML, like Gecko) Chrome/121.0.0.0 Safari/537.36" etag="SIHOBS33fsjT_cAVvFUO" version="23.1.1" type="device">
  <diagram name="Page-1" id="5f0bae14-7c28-e335-631c-24af17079c00">
    <mxGraphModel dx="3147" dy="1793" grid="1" gridSize="10" guides="1" tooltips="1" connect="1" arrows="1" fold="1" page="1" pageScale="1" pageWidth="1100" pageHeight="850" background="none" math="0" shadow="0">
      <root>
        <mxCell id="0" />
        <mxCell id="1" parent="0" />
        <mxCell id="39150e848f15840c-1" value="Controllers" style="verticalAlign=top;align=left;spacingTop=8;spacingLeft=2;spacingRight=12;shape=cube;size=10;direction=south;fontStyle=4;html=1;rounded=0;shadow=0;comic=0;labelBackgroundColor=none;strokeWidth=1;fontFamily=Verdana;fontSize=12" parent="1" vertex="1">
          <mxGeometry x="-480" y="-390" width="640" height="250" as="geometry" />
        </mxCell>
        <mxCell id="39150e848f15840c-2" value="Views" style="verticalAlign=top;align=left;spacingTop=8;spacingLeft=2;spacingRight=12;shape=cube;size=10;direction=south;fontStyle=4;html=1;rounded=0;shadow=0;comic=0;labelBackgroundColor=none;strokeWidth=1;fontFamily=Verdana;fontSize=12" parent="1" vertex="1">
          <mxGeometry x="830" y="-390" width="330" height="250" as="geometry" />
        </mxCell>
        <mxCell id="39150e848f15840c-3" value="Models" style="verticalAlign=top;align=left;spacingTop=8;spacingLeft=2;spacingRight=12;shape=cube;size=10;direction=south;fontStyle=4;html=1;rounded=0;shadow=0;comic=0;labelBackgroundColor=none;strokeWidth=1;fontFamily=Verdana;fontSize=12" parent="1" vertex="1">
          <mxGeometry x="290" y="-390" width="390" height="250" as="geometry" />
        </mxCell>
        <mxCell id="lU-f_NkTR8VVzHCxlOL--6" style="edgeStyle=orthogonalEdgeStyle;rounded=0;orthogonalLoop=1;jettySize=auto;html=1;entryX=0.5;entryY=0;entryDx=0;entryDy=0;endArrow=none;endFill=0;exitX=0.5;exitY=1;exitDx=0;exitDy=0;" edge="1" parent="1" source="lU-f_NkTR8VVzHCxlOL--7" target="lU-f_NkTR8VVzHCxlOL--5">
          <mxGeometry relative="1" as="geometry">
            <mxPoint x="-475" y="-225" as="sourcePoint" />
          </mxGeometry>
        </mxCell>
        <mxCell id="39150e848f15840c-5" value="Auth&lt;br&gt;Controller" style="shape=component;align=left;spacingLeft=36;rounded=0;shadow=0;comic=0;labelBackgroundColor=none;strokeWidth=1;fontFamily=Verdana;fontSize=12;html=1;" parent="1" vertex="1">
          <mxGeometry x="-315" y="-320" width="120" height="60" as="geometry" />
        </mxCell>
        <mxCell id="39150e848f15840c-6" value="" style="ellipse;whiteSpace=wrap;html=1;rounded=0;shadow=0;comic=0;labelBackgroundColor=none;strokeWidth=1;fontFamily=Verdana;fontSize=12;align=center;" parent="1" vertex="1">
          <mxGeometry x="-265" y="-225" width="20" height="20" as="geometry" />
        </mxCell>
        <mxCell id="39150e848f15840c-14" style="edgeStyle=elbowEdgeStyle;rounded=0;html=1;labelBackgroundColor=none;startArrow=none;startFill=0;startSize=8;endArrow=none;endFill=0;endSize=16;fontFamily=Verdana;fontSize=12;" parent="1" source="39150e848f15840c-6" target="39150e848f15840c-5" edge="1">
          <mxGeometry relative="1" as="geometry" />
        </mxCell>
        <mxCell id="39150e848f15840c-15" style="edgeStyle=orthogonalEdgeStyle;rounded=0;html=1;labelBackgroundColor=none;startArrow=none;startFill=0;startSize=8;endArrow=open;endFill=0;endSize=16;fontFamily=Verdana;fontSize=12;dashed=1;" parent="1" source="39150e848f15840c-5" edge="1">
          <mxGeometry relative="1" as="geometry">
            <Array as="points">
              <mxPoint x="-275" y="-225" />
              <mxPoint x="-385" y="-225" />
            </Array>
            <mxPoint x="-384.9999999999998" y="-264.9999999999998" as="targetPoint" />
          </mxGeometry>
        </mxCell>
        <mxCell id="lU-f_NkTR8VVzHCxlOL--1" value="User Model" style="rounded=0;whiteSpace=wrap;html=1;" vertex="1" parent="1">
          <mxGeometry x="330" y="-330" width="120" height="60" as="geometry" />
        </mxCell>
        <mxCell id="lU-f_NkTR8VVzHCxlOL--2" value="Tale Model" style="rounded=0;whiteSpace=wrap;html=1;" vertex="1" parent="1">
          <mxGeometry x="520" y="-330" width="120" height="60" as="geometry" />
        </mxCell>
        <mxCell id="lU-f_NkTR8VVzHCxlOL--3" value="Card Model" style="rounded=0;whiteSpace=wrap;html=1;" vertex="1" parent="1">
          <mxGeometry x="425" y="-240" width="120" height="60" as="geometry" />
        </mxCell>
        <mxCell id="lU-f_NkTR8VVzHCxlOL--17" style="edgeStyle=orthogonalEdgeStyle;rounded=0;orthogonalLoop=1;jettySize=auto;html=1;exitX=0.25;exitY=0.1;exitDx=0;exitDy=0;exitPerimeter=0;entryX=1;entryY=1;entryDx=0;entryDy=0;" edge="1" parent="1" source="lU-f_NkTR8VVzHCxlOL--4" target="lU-f_NkTR8VVzHCxlOL--12">
          <mxGeometry relative="1" as="geometry" />
        </mxCell>
        <mxCell id="lU-f_NkTR8VVzHCxlOL--22" value="&lt;font style=&quot;font-size: 14px;&quot;&gt;Uses&lt;/font&gt;" style="edgeLabel;html=1;align=center;verticalAlign=middle;resizable=0;points=[];" vertex="1" connectable="0" parent="lU-f_NkTR8VVzHCxlOL--17">
          <mxGeometry x="0.6697" relative="1" as="geometry">
            <mxPoint as="offset" />
          </mxGeometry>
        </mxCell>
        <mxCell id="lU-f_NkTR8VVzHCxlOL--19" style="edgeStyle=orthogonalEdgeStyle;rounded=0;orthogonalLoop=1;jettySize=auto;html=1;exitX=0.25;exitY=0.1;exitDx=0;exitDy=0;exitPerimeter=0;entryX=0.5;entryY=1;entryDx=0;entryDy=0;" edge="1" parent="1" source="lU-f_NkTR8VVzHCxlOL--4" target="lU-f_NkTR8VVzHCxlOL--9">
          <mxGeometry relative="1" as="geometry" />
        </mxCell>
        <mxCell id="lU-f_NkTR8VVzHCxlOL--24" value="&lt;font style=&quot;font-size: 14px;&quot;&gt;Uses&lt;/font&gt;" style="edgeLabel;html=1;align=center;verticalAlign=middle;resizable=0;points=[];" vertex="1" connectable="0" parent="lU-f_NkTR8VVzHCxlOL--19">
          <mxGeometry x="0.7354" y="4" relative="1" as="geometry">
            <mxPoint y="-1" as="offset" />
          </mxGeometry>
        </mxCell>
        <mxCell id="lU-f_NkTR8VVzHCxlOL--20" style="edgeStyle=orthogonalEdgeStyle;rounded=0;orthogonalLoop=1;jettySize=auto;html=1;exitX=0.25;exitY=0.1;exitDx=0;exitDy=0;exitPerimeter=0;entryX=0.5;entryY=1;entryDx=0;entryDy=0;" edge="1" parent="1" source="lU-f_NkTR8VVzHCxlOL--4" target="39150e848f15840c-6">
          <mxGeometry relative="1" as="geometry" />
        </mxCell>
        <mxCell id="lU-f_NkTR8VVzHCxlOL--25" value="&lt;font style=&quot;font-size: 14px;&quot;&gt;Uses&lt;/font&gt;" style="edgeLabel;html=1;align=center;verticalAlign=middle;resizable=0;points=[];" vertex="1" connectable="0" parent="lU-f_NkTR8VVzHCxlOL--20">
          <mxGeometry x="0.7712" relative="1" as="geometry">
            <mxPoint y="-1" as="offset" />
          </mxGeometry>
        </mxCell>
        <mxCell id="lU-f_NkTR8VVzHCxlOL--21" style="edgeStyle=orthogonalEdgeStyle;rounded=0;orthogonalLoop=1;jettySize=auto;html=1;exitX=0.25;exitY=0.1;exitDx=0;exitDy=0;exitPerimeter=0;entryX=0.5;entryY=1;entryDx=0;entryDy=0;" edge="1" parent="1" source="lU-f_NkTR8VVzHCxlOL--4" target="lU-f_NkTR8VVzHCxlOL--5">
          <mxGeometry relative="1" as="geometry" />
        </mxCell>
        <mxCell id="lU-f_NkTR8VVzHCxlOL--26" value="&lt;font style=&quot;font-size: 14px;&quot;&gt;Uses&lt;/font&gt;" style="edgeLabel;html=1;align=center;verticalAlign=middle;resizable=0;points=[];" vertex="1" connectable="0" parent="lU-f_NkTR8VVzHCxlOL--21">
          <mxGeometry x="0.7809" y="-1" relative="1" as="geometry">
            <mxPoint x="-1" y="-15" as="offset" />
          </mxGeometry>
        </mxCell>
        <mxCell id="lU-f_NkTR8VVzHCxlOL--4" value="&lt;font style=&quot;font-size: 14px;&quot;&gt;User&lt;/font&gt;" style="shape=umlActor;verticalLabelPosition=bottom;verticalAlign=top;html=1;outlineConnect=0;" vertex="1" parent="1">
          <mxGeometry x="470" y="90" width="30" height="60" as="geometry" />
        </mxCell>
        <mxCell id="lU-f_NkTR8VVzHCxlOL--5" value="" style="ellipse;whiteSpace=wrap;html=1;rounded=0;shadow=0;comic=0;labelBackgroundColor=none;strokeWidth=1;fontFamily=Verdana;fontSize=12;align=center;" vertex="1" parent="1">
          <mxGeometry x="-420" y="-225" width="20" height="20" as="geometry" />
        </mxCell>
        <mxCell id="lU-f_NkTR8VVzHCxlOL--7" value="Auth Service" style="rounded=0;whiteSpace=wrap;html=1;" vertex="1" parent="1">
          <mxGeometry x="-470" y="-320" width="120" height="60" as="geometry" />
        </mxCell>
        <mxCell id="lU-f_NkTR8VVzHCxlOL--8" value="Card Service" style="shape=component;align=left;spacingLeft=36;rounded=0;shadow=0;comic=0;labelBackgroundColor=none;strokeWidth=1;fontFamily=Verdana;fontSize=12;html=1;" vertex="1" parent="1">
          <mxGeometry x="-155" y="-320" width="120" height="60" as="geometry" />
        </mxCell>
        <mxCell id="lU-f_NkTR8VVzHCxlOL--9" value="" style="ellipse;whiteSpace=wrap;html=1;rounded=0;shadow=0;comic=0;labelBackgroundColor=none;strokeWidth=1;fontFamily=Verdana;fontSize=12;align=center;" vertex="1" parent="1">
          <mxGeometry x="-105" y="-225" width="20" height="20" as="geometry" />
        </mxCell>
        <mxCell id="lU-f_NkTR8VVzHCxlOL--10" style="edgeStyle=elbowEdgeStyle;rounded=0;html=1;labelBackgroundColor=none;startArrow=none;startFill=0;startSize=8;endArrow=none;endFill=0;endSize=16;fontFamily=Verdana;fontSize=12;" edge="1" parent="1" source="lU-f_NkTR8VVzHCxlOL--9" target="lU-f_NkTR8VVzHCxlOL--8">
          <mxGeometry relative="1" as="geometry" />
        </mxCell>
        <mxCell id="lU-f_NkTR8VVzHCxlOL--11" value="Tale Service" style="shape=component;align=left;spacingLeft=36;rounded=0;shadow=0;comic=0;labelBackgroundColor=none;strokeWidth=1;fontFamily=Verdana;fontSize=12;html=1;" vertex="1" parent="1">
          <mxGeometry x="5" y="-320" width="120" height="60" as="geometry" />
        </mxCell>
        <mxCell id="lU-f_NkTR8VVzHCxlOL--12" value="" style="ellipse;whiteSpace=wrap;html=1;rounded=0;shadow=0;comic=0;labelBackgroundColor=none;strokeWidth=1;fontFamily=Verdana;fontSize=12;align=center;" vertex="1" parent="1">
          <mxGeometry x="55" y="-225" width="20" height="20" as="geometry" />
        </mxCell>
        <mxCell id="lU-f_NkTR8VVzHCxlOL--13" style="edgeStyle=elbowEdgeStyle;rounded=0;html=1;labelBackgroundColor=none;startArrow=none;startFill=0;startSize=8;endArrow=none;endFill=0;endSize=16;fontFamily=Verdana;fontSize=12;" edge="1" parent="1" source="lU-f_NkTR8VVzHCxlOL--12" target="lU-f_NkTR8VVzHCxlOL--11">
          <mxGeometry relative="1" as="geometry" />
        </mxCell>
        <mxCell id="lU-f_NkTR8VVzHCxlOL--14" value="UI Elements" style="rounded=0;whiteSpace=wrap;html=1;" vertex="1" parent="1">
          <mxGeometry x="860" y="-320" width="120" height="60" as="geometry" />
        </mxCell>
        <mxCell id="lU-f_NkTR8VVzHCxlOL--15" value="Pages View" style="rounded=0;whiteSpace=wrap;html=1;" vertex="1" parent="1">
          <mxGeometry x="1010" y="-320" width="120" height="60" as="geometry" />
        </mxCell>
        <mxCell id="lU-f_NkTR8VVzHCxlOL--27" style="edgeStyle=orthogonalEdgeStyle;rounded=0;orthogonalLoop=1;jettySize=auto;html=1;exitX=0;exitY=0;exitDx=120;exitDy=0;exitPerimeter=0;entryX=0.48;entryY=0.993;entryDx=0;entryDy=0;entryPerimeter=0;" edge="1" parent="1" source="39150e848f15840c-1" target="39150e848f15840c-3">
          <mxGeometry relative="1" as="geometry" />
        </mxCell>
        <mxCell id="lU-f_NkTR8VVzHCxlOL--28" value="&lt;font style=&quot;font-size: 14px;&quot;&gt;Manipulate&lt;/font&gt;" style="edgeLabel;html=1;align=center;verticalAlign=middle;resizable=0;points=[];" vertex="1" connectable="0" parent="lU-f_NkTR8VVzHCxlOL--27">
          <mxGeometry x="0.0062" y="-1" relative="1" as="geometry">
            <mxPoint as="offset" />
          </mxGeometry>
        </mxCell>
        <mxCell id="lU-f_NkTR8VVzHCxlOL--31" style="edgeStyle=orthogonalEdgeStyle;rounded=0;orthogonalLoop=1;jettySize=auto;html=1;exitX=0;exitY=0;exitDx=120;exitDy=0;exitPerimeter=0;entryX=0.477;entryY=0.999;entryDx=0;entryDy=0;entryPerimeter=0;" edge="1" parent="1" source="39150e848f15840c-3" target="39150e848f15840c-2">
          <mxGeometry relative="1" as="geometry" />
        </mxCell>
        <mxCell id="lU-f_NkTR8VVzHCxlOL--32" value="&lt;font style=&quot;font-size: 14px;&quot;&gt;Change&lt;/font&gt;" style="edgeLabel;html=1;align=center;verticalAlign=middle;resizable=0;points=[];" vertex="1" connectable="0" parent="lU-f_NkTR8VVzHCxlOL--31">
          <mxGeometry x="0.1119" y="1" relative="1" as="geometry">
            <mxPoint as="offset" />
          </mxGeometry>
        </mxCell>
        <mxCell id="lU-f_NkTR8VVzHCxlOL--33" style="edgeStyle=orthogonalEdgeStyle;rounded=0;orthogonalLoop=1;jettySize=auto;html=1;exitX=0;exitY=0;exitDx=250;exitDy=170;exitPerimeter=0;entryX=0.75;entryY=0.1;entryDx=0;entryDy=0;entryPerimeter=0;" edge="1" parent="1" source="39150e848f15840c-2" target="lU-f_NkTR8VVzHCxlOL--4">
          <mxGeometry relative="1" as="geometry">
            <Array as="points">
              <mxPoint x="990" y="96" />
            </Array>
          </mxGeometry>
        </mxCell>
        <mxCell id="lU-f_NkTR8VVzHCxlOL--34" value="&lt;font style=&quot;font-size: 14px;&quot;&gt;See&lt;/font&gt;" style="edgeLabel;html=1;align=center;verticalAlign=middle;resizable=0;points=[];" vertex="1" connectable="0" parent="lU-f_NkTR8VVzHCxlOL--33">
          <mxGeometry x="0.416" y="2" relative="1" as="geometry">
            <mxPoint as="offset" />
          </mxGeometry>
        </mxCell>
      </root>
    </mxGraphModel>
  </diagram>
</mxfile>
